solid OpenSCAD_Model
  facet normal 0 0 -1
    outer loop
      vertex -20 0 0
      vertex -5 0 0
      vertex -17 -3 0
    endloop
  endfacet
  facet normal 0 0 -1
    outer loop
      vertex -1.91342 4.6194 0
      vertex -5 0 0
      vertex -3.53553 3.53553 0
    endloop
  endfacet
  facet normal 0 0 -1
    outer loop
      vertex -5 0 0
      vertex -4.6194 1.91342 0
      vertex -3.53553 3.53553 0
    endloop
  endfacet
  facet normal 0 0 -1
    outer loop
      vertex 0 5 0
      vertex -5 0 0
      vertex -1.91342 4.6194 0
    endloop
  endfacet
  facet normal 0 0 -1
    outer loop
      vertex 1.91342 4.6194 0
      vertex -5 0 0
      vertex 0 5 0
    endloop
  endfacet
  facet normal 0 -0 -1
    outer loop
      vertex -0.445042 1.94986 0
      vertex -5 0 0
      vertex 1.91342 4.6194 0
    endloop
  endfacet
  facet normal 0 0 -1
    outer loop
      vertex -1.80194 -0.867767 0
      vertex -17 -3 0
      vertex -5 0 0
    endloop
  endfacet
  facet normal -0 0 -1
    outer loop
      vertex 2 0 0
      vertex 4.6194 1.91342 0
      vertex 5 0 0
    endloop
  endfacet
  facet normal -0 0 -1
    outer loop
      vertex 1.24698 -1.56366 0
      vertex 5 0 0
      vertex 4.6194 -1.91342 0
    endloop
  endfacet
  facet normal -0 0 -1
    outer loop
      vertex -3 -3 0
      vertex 4.6194 -1.91342 0
      vertex 3.53553 -3.53553 0
    endloop
  endfacet
  facet normal -0 0 -1
    outer loop
      vertex -3 -17 0
      vertex 0 -5 0
      vertex 0 -20 0
    endloop
  endfacet
  facet normal -0 0 -1
    outer loop
      vertex -17 -3 0
      vertex 4.6194 -1.91342 0
      vertex -3 -3 0
    endloop
  endfacet
  facet normal 0 -0 -1
    outer loop
      vertex -1.80194 0.867767 0
      vertex -5 0 0
      vertex -0.445042 1.94986 0
    endloop
  endfacet
  facet normal 0 0 -1
    outer loop
      vertex -0.445042 -1.94986 0
      vertex -17 -3 0
      vertex -1.80194 -0.867767 0
    endloop
  endfacet
  facet normal 0 0 -1
    outer loop
      vertex 2 0 0
      vertex 5 0 0
      vertex 1.24698 -1.56366 0
    endloop
  endfacet
  facet normal 0 0 -1
    outer loop
      vertex -17 -3 0
      vertex -0.445042 -1.94986 0
      vertex 4.6194 -1.91342 0
    endloop
  endfacet
  facet normal 0 0 -1
    outer loop
      vertex -0.445042 -1.94986 0
      vertex 1.24698 -1.56366 0
      vertex 4.6194 -1.91342 0
    endloop
  endfacet
  facet normal -0 0 -1
    outer loop
      vertex 1.24698 1.56366 0
      vertex 4.6194 1.91342 0
      vertex 2 0 0
    endloop
  endfacet
  facet normal -0 0 -1
    outer loop
      vertex -0.445042 1.94986 0
      vertex 3.53553 3.53553 0
      vertex 1.24698 1.56366 0
    endloop
  endfacet
  facet normal 0 0 -1
    outer loop
      vertex 4.6194 1.91342 0
      vertex 1.24698 1.56366 0
      vertex 3.53553 3.53553 0
    endloop
  endfacet
  facet normal 0 0 -1
    outer loop
      vertex -1.80194 -0.867767 0
      vertex -5 0 0
      vertex -1.80194 0.867767 0
    endloop
  endfacet
  facet normal 0 0 -1
    outer loop
      vertex 3.53553 3.53553 0
      vertex -0.445042 1.94986 0
      vertex 1.91342 4.6194 0
    endloop
  endfacet
  facet normal 0 0 -1
    outer loop
      vertex -3 -3 0
      vertex 3.53553 -3.53553 0
      vertex 1.91342 -4.6194 0
    endloop
  endfacet
  facet normal 0 0 -1
    outer loop
      vertex -3 -3 0
      vertex 1.91342 -4.6194 0
      vertex 0 -5 0
    endloop
  endfacet
  facet normal 0 0 -1
    outer loop
      vertex -3 -3 0
      vertex 0 -5 0
      vertex -3 -17 0
    endloop
  endfacet
  facet normal 0 1 0
    outer loop
      vertex -20 0 0
      vertex -20 0 5
      vertex -5 0 0
    endloop
  endfacet
  facet normal 0 1 0
    outer loop
      vertex -5 0 0
      vertex -20 0 5
      vertex -5 0 5
    endloop
  endfacet
  facet normal -0.707107 -0.707107 0
    outer loop
      vertex -20 0 5
      vertex -20 0 0
      vertex -17 -3 0
    endloop
  endfacet
  facet normal -0.707107 -0.707107 0
    outer loop
      vertex -3 -17 2.5
      vertex -20 0 5
      vertex -17 -3 2.5
    endloop
  endfacet
  facet normal -0.707107 -0.707107 0
    outer loop
      vertex -17 -3 2.5
      vertex -20 0 5
      vertex -17 -3 0
    endloop
  endfacet
  facet normal -0.707107 -0.707107 0
    outer loop
      vertex 0 -20 5
      vertex -20 0 5
      vertex -3 -17 2.5
    endloop
  endfacet
  facet normal -0.707107 -0.707107 0
    outer loop
      vertex 0 -20 0
      vertex -3 -17 2.5
      vertex -3 -17 0
    endloop
  endfacet
  facet normal -0.707107 -0.707107 0
    outer loop
      vertex 0 -20 5
      vertex -3 -17 2.5
      vertex 0 -20 0
    endloop
  endfacet
  facet normal 0 -1 0
    outer loop
      vertex -3 -3 0
      vertex -3 -3 2.5
      vertex -17 -3 2.5
    endloop
  endfacet
  facet normal -0 -1 -0
    outer loop
      vertex -17 -3 0
      vertex -3 -3 0
      vertex -17 -3 2.5
    endloop
  endfacet
  facet normal -1 0 0
    outer loop
      vertex -3 -3 2.5
      vertex -3 -3 0
      vertex -3 -17 2.5
    endloop
  endfacet
  facet normal -1 0 0
    outer loop
      vertex -3 -17 2.5
      vertex -3 -3 0
      vertex -3 -17 0
    endloop
  endfacet
  facet normal 1 0 -0
    outer loop
      vertex 0 -20 5
      vertex 0 -20 0
      vertex 0 -5 0
    endloop
  endfacet
  facet normal 1 0 0
    outer loop
      vertex 0 -5 5
      vertex 0 -20 5
      vertex 0 -5 0
    endloop
  endfacet
  facet normal 0.19509 -0.980785 0
    outer loop
      vertex 0 -5 5
      vertex 0 -5 0
      vertex 1.91342 -4.6194 0
    endloop
  endfacet
  facet normal 0.19509 -0.980785 0
    outer loop
      vertex 1.91342 -4.6194 5
      vertex 0 -5 5
      vertex 1.91342 -4.6194 0
    endloop
  endfacet
  facet normal 0.55557 -0.83147 0
    outer loop
      vertex 1.91342 -4.6194 5
      vertex 1.91342 -4.6194 0
      vertex 3.53553 -3.53553 0
    endloop
  endfacet
  facet normal 0.55557 -0.83147 0
    outer loop
      vertex 3.53553 -3.53553 5
      vertex 1.91342 -4.6194 5
      vertex 3.53553 -3.53553 0
    endloop
  endfacet
  facet normal 0.83147 -0.55557 0
    outer loop
      vertex 3.53553 -3.53553 5
      vertex 3.53553 -3.53553 0
      vertex 4.6194 -1.91342 0
    endloop
  endfacet
  facet normal 0.83147 -0.55557 0
    outer loop
      vertex 4.6194 -1.91342 5
      vertex 3.53553 -3.53553 5
      vertex 4.6194 -1.91342 0
    endloop
  endfacet
  facet normal 0.980785 -0.19509 0
    outer loop
      vertex 4.6194 -1.91342 5
      vertex 4.6194 -1.91342 0
      vertex 5 0 0
    endloop
  endfacet
  facet normal 0.980785 -0.19509 0
    outer loop
      vertex 5 0 5
      vertex 4.6194 -1.91342 5
      vertex 5 0 0
    endloop
  endfacet
  facet normal 0.980785 0.19509 0
    outer loop
      vertex 5 0 0
      vertex 4.6194 1.91342 0
      vertex 4.6194 1.91342 5
    endloop
  endfacet
  facet normal 0.980785 0.19509 -0
    outer loop
      vertex 5 0 5
      vertex 5 0 0
      vertex 4.6194 1.91342 5
    endloop
  endfacet
  facet normal 0.83147 0.55557 0
    outer loop
      vertex 4.6194 1.91342 0
      vertex 3.53553 3.53553 0
      vertex 3.53553 3.53553 5
    endloop
  endfacet
  facet normal 0.83147 0.55557 -0
    outer loop
      vertex 4.6194 1.91342 5
      vertex 4.6194 1.91342 0
      vertex 3.53553 3.53553 5
    endloop
  endfacet
  facet normal 0.55557 0.83147 0
    outer loop
      vertex 1.91342 4.6194 0
      vertex 1.91342 4.6194 5
      vertex 3.53553 3.53553 0
    endloop
  endfacet
  facet normal 0.55557 0.83147 0
    outer loop
      vertex 3.53553 3.53553 0
      vertex 1.91342 4.6194 5
      vertex 3.53553 3.53553 5
    endloop
  endfacet
  facet normal 0.19509 0.980785 0
    outer loop
      vertex 0 5 0
      vertex 0 5 5
      vertex 1.91342 4.6194 0
    endloop
  endfacet
  facet normal 0.19509 0.980785 0
    outer loop
      vertex 1.91342 4.6194 0
      vertex 0 5 5
      vertex 1.91342 4.6194 5
    endloop
  endfacet
  facet normal -0.19509 0.980785 0
    outer loop
      vertex -1.91342 4.6194 0
      vertex -1.91342 4.6194 5
      vertex 0 5 0
    endloop
  endfacet
  facet normal -0.19509 0.980785 0
    outer loop
      vertex 0 5 0
      vertex -1.91342 4.6194 5
      vertex 0 5 5
    endloop
  endfacet
  facet normal -0.55557 0.83147 0
    outer loop
      vertex -3.53553 3.53553 0
      vertex -3.53553 3.53553 5
      vertex -1.91342 4.6194 0
    endloop
  endfacet
  facet normal -0.55557 0.83147 0
    outer loop
      vertex -1.91342 4.6194 0
      vertex -3.53553 3.53553 5
      vertex -1.91342 4.6194 5
    endloop
  endfacet
  facet normal -0.83147 0.55557 0
    outer loop
      vertex -4.6194 1.91342 0
      vertex -4.6194 1.91342 5
      vertex -3.53553 3.53553 0
    endloop
  endfacet
  facet normal -0.83147 0.55557 0
    outer loop
      vertex -3.53553 3.53553 0
      vertex -4.6194 1.91342 5
      vertex -3.53553 3.53553 5
    endloop
  endfacet
  facet normal -0.980785 0.19509 0
    outer loop
      vertex -5 0 0
      vertex -5 0 5
      vertex -4.6194 1.91342 0
    endloop
  endfacet
  facet normal -0.980785 0.19509 0
    outer loop
      vertex -4.6194 1.91342 0
      vertex -5 0 5
      vertex -4.6194 1.91342 5
    endloop
  endfacet
  facet normal 0.62349 -0.781831 0
    outer loop
      vertex -0.445042 1.94986 0
      vertex -0.445042 1.94986 2
      vertex -1.80194 0.867767 2
    endloop
  endfacet
  facet normal 0.62349 -0.781831 0
    outer loop
      vertex -1.80194 0.867767 0
      vertex -0.445042 1.94986 0
      vertex -1.80194 0.867767 2
    endloop
  endfacet
  facet normal 1 0 0
    outer loop
      vertex -1.80194 0.867767 0
      vertex -1.80194 0.867767 2
      vertex -1.80194 -0.867767 2
    endloop
  endfacet
  facet normal 1 0 0
    outer loop
      vertex -1.80194 -0.867767 0
      vertex -1.80194 0.867767 0
      vertex -1.80194 -0.867767 2
    endloop
  endfacet
  facet normal -0.222521 -0.974928 -0
    outer loop
      vertex 1.24698 1.56366 0
      vertex 1.24698 1.56366 2
      vertex -0.445042 1.94986 2
    endloop
  endfacet
  facet normal -0.222521 -0.974928 -0
    outer loop
      vertex -0.445042 1.94986 0
      vertex 1.24698 1.56366 0
      vertex -0.445042 1.94986 2
    endloop
  endfacet
  facet normal -0.900969 -0.433884 0
    outer loop
      vertex 2 0 2
      vertex 1.24698 1.56366 2
      vertex 2 0 0
    endloop
  endfacet
  facet normal -0.900969 -0.433884 0
    outer loop
      vertex 2 0 0
      vertex 1.24698 1.56366 2
      vertex 1.24698 1.56366 0
    endloop
  endfacet
  facet normal -0.900969 0.433884 0
    outer loop
      vertex 2 0 2
      vertex 2 0 0
      vertex 1.24698 -1.56366 2
    endloop
  endfacet
  facet normal -0.900969 0.433884 0
    outer loop
      vertex 1.24698 -1.56366 2
      vertex 2 0 0
      vertex 1.24698 -1.56366 0
    endloop
  endfacet
  facet normal -0.222521 0.974928 0
    outer loop
      vertex 1.24698 -1.56366 2
      vertex 1.24698 -1.56366 0
      vertex -0.445042 -1.94986 2
    endloop
  endfacet
  facet normal -0.222521 0.974928 0
    outer loop
      vertex -0.445042 -1.94986 2
      vertex 1.24698 -1.56366 0
      vertex -0.445042 -1.94986 0
    endloop
  endfacet
  facet normal 0.62349 0.781831 -0
    outer loop
      vertex -0.445042 -1.94986 2
      vertex -0.445042 -1.94986 0
      vertex -1.80194 -0.867767 2
    endloop
  endfacet
  facet normal 0.62349 0.781831 -0
    outer loop
      vertex -1.80194 -0.867767 2
      vertex -0.445042 -1.94986 0
      vertex -1.80194 -0.867767 0
    endloop
  endfacet
  facet normal 0 -0 1
    outer loop
      vertex -5 0 5
      vertex -20 0 5
      vertex 0 -20 5
    endloop
  endfacet
  facet normal -0 -0 1
    outer loop
      vertex -2.50795 -1.82213 5
      vertex -5 0 5
      vertex 0 -5 5
    endloop
  endfacet
  facet normal -0 0 1
    outer loop
      vertex 0 -5 5
      vertex -5 0 5
      vertex 0 -20 5
    endloop
  endfacet
  facet normal -0 0 1
    outer loop
      vertex -3.1 0 5
      vertex -2.50795 1.82213 5
      vertex -5 0 5
    endloop
  endfacet
  facet normal 0 0 1
    outer loop
      vertex 5 0 5
      vertex 3.1 0 5
      vertex 4.6194 -1.91342 5
    endloop
  endfacet
  facet normal 0 -0 1
    outer loop
      vertex 3.1 0 5
      vertex 2.50795 -1.82213 5
      vertex 4.6194 -1.91342 5
    endloop
  endfacet
  facet normal 0 -0 1
    outer loop
      vertex -1.91342 4.6194 5
      vertex -3.53553 3.53553 5
      vertex 0 5 5
    endloop
  endfacet
  facet normal 0 0 1
    outer loop
      vertex -3.53553 3.53553 5
      vertex -0.957953 2.94827 5
      vertex 1.91342 4.6194 5
    endloop
  endfacet
  facet normal 0 -0 1
    outer loop
      vertex 0 5 5
      vertex -3.53553 3.53553 5
      vertex 1.91342 4.6194 5
    endloop
  endfacet
  facet normal 0 0 1
    outer loop
      vertex 0.957953 2.94827 5
      vertex 2.50795 1.82213 5
      vertex 4.6194 1.91342 5
    endloop
  endfacet
  facet normal -0 -0 1
    outer loop
      vertex -0.957953 -2.94827 5
      vertex -2.50795 -1.82213 5
      vertex 0 -5 5
    endloop
  endfacet
  facet normal 0 -0 1
    outer loop
      vertex 2.50795 -1.82213 5
      vertex 0.957953 -2.94827 5
      vertex 3.53553 -3.53553 5
    endloop
  endfacet
  facet normal 0 0 1
    outer loop
      vertex 2.50795 1.82213 5
      vertex 3.1 0 5
      vertex 4.6194 1.91342 5
    endloop
  endfacet
  facet normal 0 -0 1
    outer loop
      vertex -3.53553 3.53553 5
      vertex -4.6194 1.91342 5
      vertex -0.957953 2.94827 5
    endloop
  endfacet
  facet normal 0 -0 1
    outer loop
      vertex 1.91342 4.6194 5
      vertex -0.957953 2.94827 5
      vertex 3.53553 3.53553 5
    endloop
  endfacet
  facet normal 0 -0 1
    outer loop
      vertex 3.53553 3.53553 5
      vertex 0.957953 2.94827 5
      vertex 4.6194 1.91342 5
    endloop
  endfacet
  facet normal 0 -0 1
    outer loop
      vertex 4.6194 1.91342 5
      vertex 3.1 0 5
      vertex 5 0 5
    endloop
  endfacet
  facet normal -0 0 1
    outer loop
      vertex 4.6194 -1.91342 5
      vertex 2.50795 -1.82213 5
      vertex 3.53553 -3.53553 5
    endloop
  endfacet
  facet normal -0 0 1
    outer loop
      vertex 3.53553 -3.53553 5
      vertex 0.957953 -2.94827 5
      vertex 1.91342 -4.6194 5
    endloop
  endfacet
  facet normal 0 0 1
    outer loop
      vertex -2.50795 1.82213 5
      vertex -0.957953 2.94827 5
      vertex -4.6194 1.91342 5
    endloop
  endfacet
  facet normal -0 0 1
    outer loop
      vertex 1.91342 -4.6194 5
      vertex -0.957953 -2.94827 5
      vertex 0 -5 5
    endloop
  endfacet
  facet normal 0 -0 1
    outer loop
      vertex 0.957953 -2.94827 5
      vertex -0.957953 -2.94827 5
      vertex 1.91342 -4.6194 5
    endloop
  endfacet
  facet normal 0 0 1
    outer loop
      vertex -0.957953 2.94827 5
      vertex 0.957953 2.94827 5
      vertex 3.53553 3.53553 5
    endloop
  endfacet
  facet normal 0 -0 1
    outer loop
      vertex -4.6194 1.91342 5
      vertex -5 0 5
      vertex -2.50795 1.82213 5
    endloop
  endfacet
  facet normal 0 0 1
    outer loop
      vertex -2.50795 -1.82213 5
      vertex -3.1 0 5
      vertex -5 0 5
    endloop
  endfacet
  facet normal 0 0 -1
    outer loop
      vertex -3 -3 2.5
      vertex -3 -17 2.5
      vertex -17 -3 2.5
    endloop
  endfacet
  facet normal 0 0 1
    outer loop
      vertex -2.50795 -1.82213 2
      vertex -0.957953 -2.94827 2
      vertex 0.957953 -2.94827 2
    endloop
  endfacet
  facet normal -0 -0 1
    outer loop
      vertex -0.445042 -1.94986 2
      vertex -2.50795 -1.82213 2
      vertex 0.957953 -2.94827 2
    endloop
  endfacet
  facet normal 0 -0 1
    outer loop
      vertex 1.24698 -1.56366 2
      vertex -0.445042 -1.94986 2
      vertex 2.50795 -1.82213 2
    endloop
  endfacet
  facet normal 0 -0 1
    outer loop
      vertex 2 0 2
      vertex 1.24698 -1.56366 2
      vertex 3.1 0 2
    endloop
  endfacet
  facet normal 0 0 1
    outer loop
      vertex -0.445042 1.94986 2
      vertex 1.24698 1.56366 2
      vertex 0.957953 2.94827 2
    endloop
  endfacet
  facet normal 0 0 1
    outer loop
      vertex -3.1 0 2
      vertex -2.50795 -1.82213 2
      vertex -2.50795 1.82213 2
    endloop
  endfacet
  facet normal 0 0 1
    outer loop
      vertex -2.50795 1.82213 2
      vertex -1.80194 0.867767 2
      vertex -0.957953 2.94827 2
    endloop
  endfacet
  facet normal 0 -0 1
    outer loop
      vertex -2.50795 1.82213 2
      vertex -2.50795 -1.82213 2
      vertex -1.80194 0.867767 2
    endloop
  endfacet
  facet normal 0 0 1
    outer loop
      vertex -0.957953 2.94827 2
      vertex -0.445042 1.94986 2
      vertex 0.957953 2.94827 2
    endloop
  endfacet
  facet normal 0 0 1
    outer loop
      vertex 0.957953 2.94827 2
      vertex 1.24698 1.56366 2
      vertex 2.50795 1.82213 2
    endloop
  endfacet
  facet normal 0 -0 1
    outer loop
      vertex 2.50795 1.82213 2
      vertex 2 0 2
      vertex 3.1 0 2
    endloop
  endfacet
  facet normal 0 0 1
    outer loop
      vertex 3.1 0 2
      vertex 1.24698 -1.56366 2
      vertex 2.50795 -1.82213 2
    endloop
  endfacet
  facet normal 0 0 1
    outer loop
      vertex 2.50795 -1.82213 2
      vertex -0.445042 -1.94986 2
      vertex 0.957953 -2.94827 2
    endloop
  endfacet
  facet normal 0 0 1
    outer loop
      vertex -0.445042 -1.94986 2
      vertex -1.80194 -0.867767 2
      vertex -2.50795 -1.82213 2
    endloop
  endfacet
  facet normal 0 0 1
    outer loop
      vertex -1.80194 0.867767 2
      vertex -0.445042 1.94986 2
      vertex -0.957953 2.94827 2
    endloop
  endfacet
  facet normal 0 0 1
    outer loop
      vertex 1.24698 1.56366 2
      vertex 2 0 2
      vertex 2.50795 1.82213 2
    endloop
  endfacet
  facet normal -0 0 1
    outer loop
      vertex -1.80194 -0.867767 2
      vertex -1.80194 0.867767 2
      vertex -2.50795 -1.82213 2
    endloop
  endfacet
  facet normal 0.951057 0.309017 0
    outer loop
      vertex -3.1 0 5
      vertex -2.50795 -1.82213 5
      vertex -2.50795 -1.82213 2
    endloop
  endfacet
  facet normal 0.951057 0.309017 0
    outer loop
      vertex -3.1 0 2
      vertex -3.1 0 5
      vertex -2.50795 -1.82213 2
    endloop
  endfacet
  facet normal 0.587785 0.809017 -0
    outer loop
      vertex -0.957953 -2.94827 5
      vertex -0.957953 -2.94827 2
      vertex -2.50795 -1.82213 5
    endloop
  endfacet
  facet normal 0.587785 0.809017 -0
    outer loop
      vertex -2.50795 -1.82213 5
      vertex -0.957953 -2.94827 2
      vertex -2.50795 -1.82213 2
    endloop
  endfacet
  facet normal 0 1 0
    outer loop
      vertex 0.957953 -2.94827 5
      vertex 0.957953 -2.94827 2
      vertex -0.957953 -2.94827 5
    endloop
  endfacet
  facet normal 0 1 -0
    outer loop
      vertex -0.957953 -2.94827 5
      vertex 0.957953 -2.94827 2
      vertex -0.957953 -2.94827 2
    endloop
  endfacet
  facet normal -0.587785 0.809017 0
    outer loop
      vertex 2.50795 -1.82213 5
      vertex 2.50795 -1.82213 2
      vertex 0.957953 -2.94827 5
    endloop
  endfacet
  facet normal -0.587785 0.809017 0
    outer loop
      vertex 0.957953 -2.94827 5
      vertex 2.50795 -1.82213 2
      vertex 0.957953 -2.94827 2
    endloop
  endfacet
  facet normal -0.951057 0.309017 0
    outer loop
      vertex 3.1 0 5
      vertex 3.1 0 2
      vertex 2.50795 -1.82213 5
    endloop
  endfacet
  facet normal -0.951057 0.309017 0
    outer loop
      vertex 2.50795 -1.82213 5
      vertex 3.1 0 2
      vertex 2.50795 -1.82213 2
    endloop
  endfacet
  facet normal -0.951057 -0.309017 0
    outer loop
      vertex 3.1 0 5
      vertex 2.50795 1.82213 5
      vertex 3.1 0 2
    endloop
  endfacet
  facet normal -0.951057 -0.309017 0
    outer loop
      vertex 3.1 0 2
      vertex 2.50795 1.82213 5
      vertex 2.50795 1.82213 2
    endloop
  endfacet
  facet normal -0.587785 -0.809017 -0
    outer loop
      vertex 2.50795 1.82213 2
      vertex 2.50795 1.82213 5
      vertex 0.957953 2.94827 5
    endloop
  endfacet
  facet normal -0.587785 -0.809017 -0
    outer loop
      vertex 0.957953 2.94827 2
      vertex 2.50795 1.82213 2
      vertex 0.957953 2.94827 5
    endloop
  endfacet
  facet normal 0 -1 0
    outer loop
      vertex 0.957953 2.94827 2
      vertex 0.957953 2.94827 5
      vertex -0.957953 2.94827 5
    endloop
  endfacet
  facet normal -0 -1 -0
    outer loop
      vertex -0.957953 2.94827 2
      vertex 0.957953 2.94827 2
      vertex -0.957953 2.94827 5
    endloop
  endfacet
  facet normal 0.587785 -0.809017 0
    outer loop
      vertex -0.957953 2.94827 2
      vertex -0.957953 2.94827 5
      vertex -2.50795 1.82213 5
    endloop
  endfacet
  facet normal 0.587785 -0.809017 0
    outer loop
      vertex -2.50795 1.82213 2
      vertex -0.957953 2.94827 2
      vertex -2.50795 1.82213 5
    endloop
  endfacet
  facet normal 0.951057 -0.309017 0
    outer loop
      vertex -2.50795 1.82213 2
      vertex -2.50795 1.82213 5
      vertex -3.1 0 5
    endloop
  endfacet
  facet normal 0.951057 -0.309017 0
    outer loop
      vertex -3.1 0 2
      vertex -2.50795 1.82213 2
      vertex -3.1 0 5
    endloop
  endfacet
endsolid OpenSCAD_Model
